# xmcd CD database file
#
# Track frame offsets:
#	150
#	5775
#	24893
#	45143
#	63517
#	84217
#	102385
#	118551
#	137887
#	164238
#	168738
#
# Disc length: 2493 seconds
#
# Revision: 2
# Processed by: cddbd v1.5.2PL0 Copyright (c) Steve Scherf et al.
# Submitted via: CDex 1.70beta2
#
DISCID=8c09bb0b
DTITLE=SYNC.ART'S リル・プラクティカ - Unknown CD for MusicBrainz and FreeDB
DYEAR=2007
DGENRE=Pop
TTITLE0=SYNC.ART'S リル・プラクティカ - 春光 -Promise of Spring- 妖々夢 ～ Snow or Cherry Petal
TTITLE1=SYNC.ART'S リル・プラクティカ - ミセリコルディア -Misericordia- 恋色マスタースパーク
TTITLE2=SYNC.ART'S リル・プラクティカ - Rendezvous 狂気の瞳
TTITLE3=SYNC.ART'S リル・プラクティカ 遊女 - 想ひそめしか 広有射怪鳥事 ～ Till When?
TTITLE4=SYNC.ART'S リル・プラクティカ - sympacy dolls ブクレシュティの人形師
TTITLE5=SYNC.ART'S リル・プラクティカ - ファンシーエディタ おてんば恋娘
TTITLE6=SYNC.ART'S リル・プラクティカ - メイビーラヴロック！ もう歌しか聞こえない
TTITLE7=SYNC.ART'S リル・プラクティカ 葉山りく 遊女 - こい☆れぽ 幽霊楽団 ～ Phantom Ensemble
TTITLE8=SYNC.ART'S リル・プラクティカ とろ美 - 猩々緋 紅楼 ～ Eastern Dream
TTITLE9=SYNC.ART'S リル・プラクティカ - Track10
TTITLE10=SYNC.ART'S リル・プラクティカ - Track11
EXTD=YEAR: 2007
EXTT0=
EXTT1=
EXTT2=
EXTT3=
EXTT4=
EXTT5=
EXTT6=
EXTT7=
EXTT8=
EXTT9=
EXTT10=
PLAYORDER=
